<svg xmlns="http://www.w3.org/2000/svg" viewBox="0 0 128 128">
  <defs>
    <linearGradient id="front" x1="0" y1="0" x2="1" y2="1">
      <stop stop-color="#262b35"/>
      <stop offset="1" stop-color="#07090f"/>
    </linearGradient>
    <linearGradient id="red" x1="0" y1="0" x2="0" y2="1">
      <stop stop-color="#ff454e"/>
      <stop offset="1" stop-color="#e00022"/>
    </linearGradient>
  </defs>
  <path d="M14 32 91 14l24 20v68l-24 15-77-8Z" fill="#07090f" stroke="#dcecff" stroke-width="5" stroke-linejoin="round"/>
  <path d="m14 32 77 2 24-0-24-20Z" fill="#3b424e"/>
  <path d="m91 34 24 0v68l-24 15Z" fill="#11151e" stroke="#657287" stroke-width="3" stroke-linejoin="round"/>
  <path d="M14 32h77v85l-77-8Z" fill="url(#front)" stroke="#657287" stroke-width="3" stroke-linejoin="round"/>
  <path d="M34 48h21c15 0 23 7 23 19 0 8-4 14-11 17l15 22-18-2-14-22h-3v20l-13-1Zm13 12v12h8c6 0 10-2 10-6s-4-6-10-6Z" fill="url(#red)" stroke="#ff7077" stroke-width="1.5" stroke-linejoin="round"/>
  <path d="M22 41h60" stroke="#fff" stroke-opacity=".2" stroke-width="3" stroke-linecap="round"/>
  <circle cx="22" cy="101" r="2.5" fill="#8694a6"/>
  <circle cx="83" cy="109" r="2.5" fill="#8694a6"/>
</svg>
