<svg xmlns="http://www.w3.org/2000/svg" viewBox="0 0 64 64">
  <defs><linearGradient id="a" x2=".8" y2="1"><stop stop-color="#bc83f4"/><stop offset="1" stop-color="#6533aa"/></linearGradient></defs>
  <circle cx="32" cy="32" r="27" fill="#e8f2fc" stroke="#071424" stroke-width="4"/>
  <path d="M5 32a27 27 0 0 1 54 0Z" fill="url(#a)"/>
  <path d="M12 14c5-5 9-6 12-6l-3 13-10 3Zm40 0c-5-5-9-6-12-6l3 13 10 3Z" fill="#f48ac2"/>
  <path d="M26 24v-9l6 5 6-5v9" fill="none" stroke="#fff" stroke-width="3" stroke-linejoin="round"/>
  <path d="M5 32h54" stroke="#071424" stroke-width="4"/>
  <circle cx="32" cy="32" r="9" fill="#eff7ff" stroke="#071424" stroke-width="4"/>
  <circle cx="32" cy="32" r="4" fill="#cad7e8"/>
  <path d="M16 41c3 5 7 8 12 9" fill="none" stroke="#fff" stroke-width="3" stroke-linecap="round"/>
  <circle cx="32" cy="32" r="27" fill="none" stroke="#071424" stroke-width="4"/>
</svg>
